<svg width="22" height="22" viewBox="0 0 22 22" fill="none" xmlns="http://www.w3.org/2000/svg">
<path d="M8.338 18.4301C7.942 18.7901 7.533 19.2341 7.366 19.2571C7.199 19.2801 7.025 19.1731 6.652 18.9621L4.75 17.8901C4.27 17.6501 4.246 17.4701 4.246 17.4101C4.246 17.3501 4.246 17.0961 4.402 16.5741C4.902 14.6501 3.73 12.6101 1.739 12.0901C1.217 11.9501 0.956 11.8791 0.853 11.7441C0.75 11.6091 0.75 11.3941 0.75 10.9601V9.03707C0.75 8.60407 0.75 8.38707 0.853 8.25307C0.956 8.11807 1.217 8.04807 1.739 7.90707C3.689 7.38107 4.911 5.39907 4.409 3.46207C4.269 2.92907 4.201 2.66207 4.267 2.50607C4.333 2.35007 4.522 2.24207 4.902 2.02607L6.627 1.04707C6.999 0.837071 7.185 0.730071 7.352 0.753071C7.519 0.775071 7.707 0.963071 8.084 1.34007C9.544 2.79507 11.958 2.79507 13.417 1.34007C13.794 0.964071 13.983 0.776071 14.15 0.753071C14.317 0.731071 14.503 0.836071 14.875 1.04807L16.6 2.02707C16.98 2.24207 17.169 2.35007 17.235 2.50707C17.301 2.66207 17.232 2.92907 17.093 3.46207C16.59 5.39907 17.811 7.39207 19.761 7.91807C20.283 8.05807 20.544 8.13107 20.647 8.26607C20.75 8.40107 20.75 8.82907 20.75 9.26207" stroke="#1ABC9C" stroke-width="1.5" stroke-linecap="round"/>
<path d="M13.75 15.9701C13.75 15.9701 14.75 16.2541 15.25 17.2541C15.25 17.2541 16.346 14.7541 17.758 14.2541" stroke="#1ABC9C" stroke-width="1.5" stroke-linecap="round" stroke-linejoin="round"/>
<path d="M13.63 8.05008C13.2962 7.58806 12.858 7.2114 12.3512 6.95074C11.8443 6.69008 11.283 6.5528 10.713 6.55008C8.91302 6.57408 7.27002 8.06008 7.27002 9.99408C7.27002 11.0601 7.57002 11.8301 8.41002 12.6701M20.75 15.7501C20.75 17.0762 20.2232 18.3479 19.2856 19.2856C18.3479 20.2233 17.0761 20.7501 15.75 20.7501C14.4239 20.7501 13.1522 20.2233 12.2145 19.2856C11.2768 18.3479 10.75 17.0762 10.75 15.7501C10.75 14.424 11.2768 13.1522 12.2145 12.2145C13.1522 11.2769 14.4239 10.7501 15.75 10.7501C17.0761 10.7501 18.3479 11.2769 19.2856 12.2145C20.2232 13.1522 20.75 14.424 20.75 15.7501Z" stroke="#1ABC9C" stroke-width="1.5" stroke-linecap="round"/>
</svg>
